<svg height="20" viewBox="0 0 20 20" width="20" xmlns="http://www.w3.org/2000/svg"><path d="m19.7746 12.6157-2.0823-1.8669v-2.47306c-.0024-1.70905-.7115-3.35661-1.9903-4.62408-1.2787-1.26748-3.0363-2.06483-4.9328-2.23789v-1.41377h-1.53843v1.41377c-1.89648.17306-3.65403.97041-4.93279 2.23789-1.27877 1.26747-1.9879 2.91503-1.99029 4.62408v2.47306l-2.082305 1.8669c-.1442691.1293-.22534143.3047-.225385.4876v2.0689c0 .1829.0810437.3583.225302.4876.144259.1294.339916.202.543929.202h5.384619v.5359c-.01674.8749.32723 1.7246.96598 2.3862.63876.6616 1.52737 1.0886 2.49556 1.1992.53471.0476 1.07471-.0057 1.58511-.1565.5103-.1508.9799-.3956 1.3784-.7189.3985-.3232.7171-.7176.9353-1.1579.2183-.4402.3314-.9165.332-1.3983v-.6897h5.3846c.204 0 .3996-.0726.5439-.202.1443-.1293.2253-.3047.2253-.4876v-2.0689c0-.1829-.0811-.3583-.2254-.4876zm-7.4669 3.9358c0 .5487-.2431 1.0749-.6759 1.4629s-1.0198.606-1.6318.606c-.61204 0-1.19901-.218-1.63179-.606-.43277-.388-.6759-.9142-.6759-1.4629v-.6897h4.61539zm6.1538-2.069h-16.92304v-1.0937l2.08231-1.8669c.14427-.1293.22534-.3047.22538-.4876v-2.75856c0-1.46324.64835-2.86655 1.80242-3.90122s2.71933-1.61594 4.35143-1.61594 3.1974.58127 4.3514 1.61594c1.1541 1.03467 1.8024 2.43798 1.8024 3.90122v2.75856c.0001.1829.0812.3583.2254.4876l2.0823 1.8669z"/></svg>
