<svg fill="none" viewBox="0 0 22 22" xmlns="http://www.w3.org/2000/svg">
    <path d="m10.0746 1.633c.32-.844 1.531-.844 1.852 0l2.07 5.734c.0722.18679.1993.34728.3647.4603.1653.11301.361.17323.5613.1727h5.087c.94 0 1.35 1.17.611 1.743l-3.62 3.257c-.1622.1247-.2807.2975-.3385.4937-.0579.1961-.0521.4056.0165.5983l1.322 5.603c.322.9-.72 1.673-1.508 1.119l-4.917-3.12c-.1684-.1183-.3692-.1818-.575-.1818s-.4066.0635-.575.1818l-4.91704 3.12c-.787.554-1.83-.22-1.508-1.119l1.32201-5.603c.06857-.1927.07435-.4022.0165-.5983-.05785-.1962-.17635-.369-.3385-.4937l-3.62001-3.257c-.739995-.573-.328-1.743.61-1.743h5.087c.2003.00067.39607-.0595.56142-.17253s.29249-.2736.36459-.46047l2.07003-5.734z"
          stroke="currentColor" stroke-linecap="round" stroke-linejoin="round" stroke-width="2"/>
</svg>
